<svg width="90" height="90" viewBox="0 0 90 90" fill="none" xmlns="http://www.w3.org/2000/svg">
<g id="Frame_3_2" clip-path="url(#clip0_2003_789)">
<rect width="90" height="90" fill="white"/>
<path id="Rectangle_1" d="M0 0H90V90H0V0Z" fill="#2D3686"/>
<g id="Group_2_2">
<path id="Rectangle_2_2" d="M79.4857 6.17145H83.8284V45.0653H79.4857V6.17145Z" fill="white"/>
<path id="Rectangle_4_2" d="M79.4857 71.8211H83.8284V83.6981H79.4857V71.8211Z" fill="white"/>
<path id="Rectangle_3_2" d="M6.17151 6.17143H10.5142V83.8286H6.17151V6.17143Z" fill="white"/>
<path id="Rectangle_5_2" d="M6.17139 83.8286V79.391H83.8285V83.8286H6.17139Z" fill="white"/>
<path id="Rectangle_6_2" d="M6.17151 10.609V6.17143L83.8286 6.17143V10.609H6.17151Z" fill="white"/>
<g id="MASTER_2">
<path d="M37.8696 49.2664V60.0965H35.7272V53.0523L32.8656 60.0965H31.2435L28.3666 53.0523V60.0965H26.2242V49.2664H28.6574L32.0546 57.3192L35.4517 49.2664H37.8696Z" fill="white"/>
<path d="M46.2311 58.0329H41.977L41.2731 60.0965H39.0236L42.8646 49.2509H45.3589L49.1999 60.0965H46.9351L46.2311 58.0329ZM45.6496 56.2951L44.1041 51.7645L42.5585 56.2951H45.6496Z" fill="white"/>
<path d="M54.0174 60.2051C53.2727 60.2051 52.5994 60.0758 51.9975 59.8172C51.4058 59.5587 50.9365 59.1863 50.5896 58.7001C50.2428 58.2139 50.0643 57.6398 50.0541 56.9778H52.3494C52.3801 57.4226 52.5331 57.7743 52.8085 58.0329C53.0942 58.2915 53.4818 58.4208 53.9715 58.4208C54.4714 58.4208 54.8642 58.3019 55.1498 58.0639C55.4355 57.8157 55.5783 57.495 55.5783 57.102C55.5783 56.7813 55.4814 56.5175 55.2876 56.3107C55.0937 56.1038 54.8489 55.9434 54.553 55.8297C54.2674 55.7055 53.8695 55.5711 53.3594 55.4262C52.6657 55.2194 52.0995 55.0177 51.6608 54.8211C51.2324 54.6142 50.86 54.3091 50.5437 53.9057C50.2377 53.4919 50.0847 52.9437 50.0847 52.261C50.0847 51.6197 50.2428 51.0611 50.559 50.5853C50.8753 50.1095 51.3191 49.7474 51.8904 49.4992C52.4617 49.2406 53.1146 49.1113 53.8491 49.1113C54.9509 49.1113 55.8436 49.3854 56.5271 49.9336C57.2208 50.4715 57.6034 51.2266 57.6748 52.1989H55.3182C55.2978 51.8266 55.1396 51.5214 54.8438 51.2835C54.5581 51.0352 54.1756 50.9111 53.6961 50.9111C53.2778 50.9111 52.9412 51.0197 52.6861 51.2369C52.4413 51.4542 52.3188 51.7697 52.3188 52.1834C52.3188 52.473 52.4107 52.7161 52.5943 52.9127C52.7881 53.0989 53.0228 53.254 53.2982 53.3781C53.5839 53.4919 53.9817 53.6264 54.4918 53.7816C55.1855 53.9884 55.7517 54.1953 56.1904 54.4022C56.6291 54.6091 57.0066 54.9194 57.3228 55.3331C57.6391 55.7469 57.7972 56.29 57.7972 56.9623C57.7972 57.5416 57.6493 58.0795 57.3534 58.576C57.0576 59.0725 56.624 59.4707 56.0527 59.7707C55.4814 60.0603 54.803 60.2051 54.0174 60.2051Z" fill="white"/>
<path d="M66.6173 49.2664V51.0197H63.771V60.0965H61.6286V51.0197H58.7823V49.2664H66.6173Z" fill="white"/>
<path d="M70.0167 51.0197V53.735H73.6128V55.4573H70.0167V58.3277H74.0719V60.0965H67.8743V49.2509H74.0719V51.0197H70.0167Z" fill="white"/>
<path d="M81.2217 60.0965L78.8651 55.8762H77.8551V60.0965H75.7128V49.2664H79.7221C80.5484 49.2664 81.2523 49.4164 81.8338 49.7164C82.4153 50.006 82.8489 50.4043 83.1346 50.9111C83.4304 51.4076 83.5783 51.9662 83.5783 52.5868C83.5783 53.3006 83.3743 53.9471 82.9662 54.5263C82.5582 55.0952 81.9511 55.4883 81.1452 55.7055L83.7008 60.0965H81.2217ZM77.8551 54.247H79.6455C80.227 54.247 80.6606 54.1074 80.9463 53.8281C81.2319 53.5385 81.3747 53.1402 81.3747 52.6334C81.3747 52.1369 81.2319 51.7541 80.9463 51.4852C80.6606 51.2059 80.227 51.0663 79.6455 51.0663H77.8551V54.247Z" fill="white"/>
</g>
<g id="GOOD_2">
<path d="M32.8974 37.3849C32.6528 36.9298 32.3164 36.5833 31.8883 36.3453C31.4602 36.1074 30.9608 35.9885 30.39 35.9885C29.758 35.9885 29.1974 36.1333 28.7082 36.4229C28.2189 36.7125 27.8367 37.1263 27.5615 37.6642C27.2863 38.2021 27.1487 38.8227 27.1487 39.5261C27.1487 40.2502 27.2863 40.8812 27.5615 41.419C27.8469 41.9569 28.2393 42.3707 28.7387 42.6603C29.2382 42.9499 29.8192 43.0948 30.4817 43.0948C31.2971 43.0948 31.9648 42.8775 32.4846 42.4431C33.0044 41.9983 33.3459 41.3828 33.509 40.5967H29.8396V38.9365H35.6189V40.8294C35.4762 41.5845 35.1704 42.2828 34.7015 42.9241C34.2327 43.5654 33.6262 44.0826 32.8821 44.4757C32.1482 44.8584 31.3226 45.0498 30.4053 45.0498C29.3758 45.0498 28.4432 44.817 27.6073 44.3516C26.7817 43.8757 26.1294 43.2189 25.6503 42.381C25.1815 41.5432 24.947 40.5915 24.947 39.5261C24.947 38.4607 25.1815 37.509 25.6503 36.6712C26.1294 35.823 26.7817 35.1661 27.6073 34.7007C28.4432 34.2248 29.3707 33.9869 30.39 33.9869C31.5927 33.9869 32.6375 34.2869 33.5243 34.8868C34.411 35.4764 35.0226 36.3091 35.359 37.3849H32.8974Z" fill="white"/>
<path d="M41.8504 45.0653C40.8515 45.0653 39.9342 44.8274 39.0984 44.3516C38.2626 43.8757 37.6 43.2189 37.1108 42.381C36.6215 41.5328 36.3769 40.576 36.3769 39.5106C36.3769 38.4555 36.6215 37.509 37.1108 36.6712C37.6 35.823 38.2626 35.161 39.0984 34.6851C39.9342 34.2093 40.8515 33.9714 41.8504 33.9714C42.8595 33.9714 43.7769 34.2093 44.6025 34.6851C45.4383 35.161 46.0957 35.823 46.5748 36.6712C47.064 37.509 47.3087 38.4555 47.3087 39.5106C47.3087 40.576 47.064 41.5328 46.5748 42.381C46.0957 43.2189 45.4383 43.8757 44.6025 44.3516C43.7667 44.8274 42.8493 45.0653 41.8504 45.0653ZM41.8504 43.1258C42.4926 43.1258 43.0583 42.981 43.5475 42.6913C44.0368 42.3914 44.419 41.9673 44.6942 41.419C44.9694 40.8708 45.107 40.2347 45.107 39.5106C45.107 38.7865 44.9694 38.1555 44.6942 37.6176C44.419 37.0694 44.0368 36.6505 43.5475 36.3609C43.0583 36.0712 42.4926 35.9264 41.8504 35.9264C41.2083 35.9264 40.6375 36.0712 40.138 36.3609C39.6488 36.6505 39.2666 37.0694 38.9913 37.6176C38.7161 38.1555 38.5785 38.7865 38.5785 39.5106C38.5785 40.2347 38.7161 40.8708 38.9913 41.419C39.2666 41.9673 39.6488 42.3914 40.138 42.6913C40.6375 42.981 41.2083 43.1258 41.8504 43.1258Z" fill="white"/>
<path d="M53.5491 45.0653C52.5502 45.0653 51.6328 44.8274 50.797 44.3516C49.9612 43.8757 49.2987 43.2189 48.8094 42.381C48.3201 41.5328 48.0755 40.576 48.0755 39.5106C48.0755 38.4555 48.3201 37.509 48.8094 36.6712C49.2987 35.823 49.9612 35.161 50.797 34.6851C51.6328 34.2093 52.5502 33.9714 53.5491 33.9714C54.5581 33.9714 55.4755 34.2093 56.3011 34.6851C57.1369 35.161 57.7944 35.823 58.2734 36.6712C58.7627 37.509 59.0073 38.4555 59.0073 39.5106C59.0073 40.576 58.7627 41.5328 58.2734 42.381C57.7944 43.2189 57.1369 43.8757 56.3011 44.3516C55.4653 44.8274 54.5479 45.0653 53.5491 45.0653ZM53.5491 43.1258C54.1912 43.1258 54.7569 42.981 55.2462 42.6913C55.7354 42.3914 56.1176 41.9673 56.3928 41.419C56.6681 40.8708 56.8057 40.2347 56.8057 39.5106C56.8057 38.7865 56.6681 38.1555 56.3928 37.6176C56.1176 37.0694 55.7354 36.6505 55.2462 36.3609C54.7569 36.0712 54.1912 35.9264 53.5491 35.9264C52.9069 35.9264 52.3361 36.0712 51.8367 36.3609C51.3474 36.6505 50.9652 37.0694 50.69 37.6176C50.4148 38.1555 50.2772 38.7865 50.2772 39.5106C50.2772 40.2347 50.4148 40.8708 50.69 41.419C50.9652 41.9673 51.3474 42.3914 51.8367 42.6913C52.3361 42.981 52.9069 43.1258 53.5491 43.1258Z" fill="white"/>
<path d="M64.0245 34.1266C65.1458 34.1266 66.1294 34.349 66.9754 34.7937C67.8316 35.2385 68.489 35.8747 68.9477 36.7022C69.4165 37.5194 69.651 38.471 69.651 39.5571C69.651 40.6432 69.4165 41.5949 68.9477 42.4121C68.489 43.2189 67.8316 43.8447 66.9754 44.2895C66.1294 44.7343 65.1458 44.9567 64.0245 44.9567H60.294V34.1266H64.0245ZM63.9481 43.1103C65.0693 43.1103 65.9357 42.8 66.5473 42.1793C67.1588 41.5587 67.4646 40.6846 67.4646 39.5571C67.4646 38.4296 67.1588 37.5504 66.5473 36.9194C65.9357 36.2781 65.0693 35.9574 63.9481 35.9574H62.4345V43.1103H63.9481Z" fill="white"/>
</g>
<g id="natyajnye_potolki_2">
<path d="M26.7861 64.3145V65.7279H28.6438V64.3145H29.2057V67.7117H28.6438V66.1969H26.7861V67.7117H26.2242V64.3145H26.7861Z" fill="white"/>
<path d="M31.5532 64.2575C31.9703 64.2575 32.2789 64.3483 32.4789 64.53C32.679 64.7117 32.779 65.0012 32.779 65.3983V67.7117H32.3704L32.2619 67.23H32.2363C32.1384 67.3526 32.0363 67.4561 31.9299 67.5406C31.8278 67.6209 31.7086 67.68 31.5724 67.7181C31.4404 67.7561 31.2787 67.7751 31.0872 67.7751C30.8829 67.7751 30.6978 67.7392 30.5318 67.6674C30.37 67.5955 30.2423 67.4857 30.1487 67.3378C30.0551 67.1857 30.0083 66.9955 30.0083 66.7674C30.0083 66.4293 30.1423 66.1695 30.4105 65.9878C30.6786 65.8019 31.0914 65.7005 31.649 65.6836L32.23 65.6645V65.4617C32.23 65.1786 32.1682 64.9821 32.0448 64.8723C31.9214 64.7624 31.7469 64.7075 31.5213 64.7075C31.3426 64.7075 31.1723 64.735 31.0106 64.7899C30.8488 64.8406 30.6978 64.8997 30.5573 64.9674L30.3849 64.549C30.5339 64.4688 30.7105 64.4012 30.9148 64.3462C31.1191 64.2871 31.3319 64.2575 31.5532 64.2575ZM31.7192 66.0702C31.2936 66.0871 30.9978 66.1547 30.8318 66.273C30.6701 66.3913 30.5892 66.5582 30.5892 66.7737C30.5892 66.9638 30.6467 67.1033 30.7616 67.192C30.8808 67.2807 31.0319 67.3251 31.2149 67.3251C31.5043 67.3251 31.7448 67.2469 31.9363 67.0906C32.1278 66.93 32.2236 66.685 32.2236 66.3554V66.0512L31.7192 66.0702Z" fill="white"/>
<path d="M36.1661 64.7836H35.0489V67.7117H34.4934V64.7836H33.389V64.3145H36.1661V64.7836Z" fill="white"/>
<path d="M37.0189 67.7117H36.3677L37.3445 66.2857C37.2126 66.2519 37.0849 66.199 36.9615 66.1272C36.838 66.0512 36.738 65.9476 36.6614 65.8166C36.5848 65.6814 36.5465 65.5145 36.5465 65.3159C36.5465 64.9906 36.6572 64.7434 36.8785 64.5744C37.0998 64.4012 37.3935 64.3145 37.7595 64.3145H39.2917V67.7117H38.7299V66.3617H37.8999L37.0189 67.7117ZM37.0892 65.3223C37.0892 65.5167 37.1615 65.6624 37.3062 65.7596C37.4552 65.8526 37.6616 65.899 37.9255 65.899H38.7299V64.7772H37.817C37.5573 64.7772 37.3701 64.8279 37.2551 64.9293C37.1445 65.0307 37.0892 65.1617 37.0892 65.3223Z" fill="white"/>
<path d="M44.4475 64.3145L43.0366 65.9624L44.5688 67.7117H43.9304L42.4493 65.9878V67.7117H41.9258V65.9878L40.4446 67.7117H39.8062L41.3384 65.9624L39.9275 64.3145H40.5404L41.9258 65.9624V64.3145H42.4493V65.9624L43.841 64.3145H44.4475Z" fill="white"/>
<path d="M45.6605 64.3145V65.7279H47.5183V64.3145H48.0801V67.7117H47.5183V66.1969H45.6605V67.7117H45.0987V64.3145H45.6605Z" fill="white"/>
<path d="M49.1317 67.7117V64.3145H49.6935V65.7089H50.5809C50.8788 65.7089 51.1236 65.7448 51.3151 65.8166C51.5066 65.8885 51.6492 65.9962 51.7428 66.1399C51.8365 66.2793 51.8833 66.4568 51.8833 66.6723C51.8833 66.8835 51.8365 67.0674 51.7428 67.2237C51.6534 67.38 51.5109 67.5004 51.3151 67.585C51.1236 67.6695 50.8703 67.7117 50.5554 67.7117H49.1317ZM50.5043 67.2617C50.7469 67.2617 50.9448 67.2216 51.098 67.1413C51.2512 67.0568 51.3279 66.911 51.3279 66.704C51.3279 66.4969 51.2576 66.3575 51.1172 66.2857C50.9767 66.2096 50.7746 66.1716 50.5107 66.1716H49.6935V67.2617H50.5043ZM52.4515 67.7117V64.3145H53.0133V67.7117H52.4515Z" fill="white"/>
<path d="M55.3902 64.2512C55.6839 64.2512 55.935 64.3145 56.1436 64.4413C56.3564 64.5681 56.5181 64.7476 56.6288 64.98C56.7437 65.2082 56.8011 65.4765 56.8011 65.785V66.1209H54.4581C54.4667 66.5054 54.5645 66.799 54.7518 67.0019C54.9433 67.2005 55.2093 67.2997 55.5498 67.2997C55.7669 67.2997 55.9584 67.2807 56.1244 67.2427C56.2947 67.2005 56.4692 67.1413 56.6479 67.0652V67.5533C56.4734 67.6293 56.301 67.6843 56.1308 67.7181C55.9606 67.7561 55.7584 67.7751 55.5243 67.7751C55.2008 67.7751 54.9135 67.7096 54.6624 67.5786C54.4156 67.4476 54.2219 67.2533 54.0815 66.9955C53.9453 66.7335 53.8772 66.4145 53.8772 66.0385C53.8772 65.6666 53.9389 65.3476 54.0623 65.0814C54.19 64.8152 54.3666 64.6103 54.5922 64.4667C54.822 64.323 55.088 64.2512 55.3902 64.2512ZM55.3838 64.7075C55.1157 64.7075 54.9029 64.7941 54.7454 64.9674C54.5922 65.1364 54.5007 65.373 54.4709 65.6772H56.2138C56.2138 65.4828 56.184 65.3138 56.1244 65.1702C56.0648 65.0265 55.9733 64.9145 55.8499 64.8343C55.7307 64.7498 55.5754 64.7075 55.3838 64.7075Z" fill="white"/>
<path d="M62.2025 64.3145V67.7117H61.6407V64.7899H59.8723V67.7117H59.3105V64.3145H62.2025Z" fill="white"/>
<path d="M66.2374 66.0068C66.2374 66.2899 66.1991 66.5413 66.1225 66.761C66.0502 66.9765 65.9438 67.1603 65.8033 67.3124C65.6671 67.4645 65.499 67.5807 65.299 67.661C65.1032 67.7371 64.884 67.7751 64.6414 67.7751C64.4158 67.7751 64.2073 67.7371 64.0157 67.661C63.8242 67.5807 63.6582 67.4645 63.5178 67.3124C63.3773 67.1603 63.2667 66.9765 63.1858 66.761C63.1092 66.5413 63.0709 66.2899 63.0709 66.0068C63.0709 65.6307 63.1347 65.3138 63.2624 65.0561C63.3901 64.7941 63.5731 64.5955 63.8115 64.4603C64.0498 64.3209 64.3328 64.2512 64.6605 64.2512C64.9712 64.2512 65.2436 64.3209 65.4777 64.4603C65.7161 64.5955 65.9012 64.7941 66.0331 65.0561C66.1693 65.3138 66.2374 65.6307 66.2374 66.0068ZM63.6518 66.0068C63.6518 66.273 63.6859 66.5054 63.754 66.704C63.8264 66.8983 63.937 67.0483 64.086 67.154C64.2349 67.2596 64.4243 67.3124 64.6542 67.3124C64.884 67.3124 65.0734 67.2596 65.2224 67.154C65.3713 67.0483 65.4798 66.8983 65.5479 66.704C65.6203 66.5054 65.6565 66.273 65.6565 66.0068C65.6565 65.7364 65.6203 65.5061 65.5479 65.3159C65.4756 65.1258 65.3649 64.98 65.216 64.8786C65.0713 64.773 64.8819 64.7202 64.6478 64.7202C64.2988 64.7202 64.0455 64.8343 63.8881 65.0624C63.7306 65.2906 63.6518 65.6054 63.6518 66.0068Z" fill="white"/>
<path d="M69.3957 64.7836H68.2785V67.7117H67.7231V64.7836H66.6186V64.3145H69.3957V64.7836Z" fill="white"/>
<path d="M72.9505 66.0068C72.9505 66.2899 72.9122 66.5413 72.8356 66.761C72.7633 66.9765 72.6569 67.1603 72.5164 67.3124C72.3802 67.4645 72.2121 67.5807 72.0121 67.661C71.8163 67.7371 71.5971 67.7751 71.3545 67.7751C71.1289 67.7751 70.9204 67.7371 70.7289 67.661C70.5373 67.5807 70.3713 67.4645 70.2309 67.3124C70.0904 67.1603 69.9798 66.9765 69.8989 66.761C69.8223 66.5413 69.784 66.2899 69.784 66.0068C69.784 65.6307 69.8478 65.3138 69.9755 65.0561C70.1032 64.7941 70.2862 64.5955 70.5246 64.4603C70.7629 64.3209 71.0459 64.2512 71.3737 64.2512C71.6843 64.2512 71.9567 64.3209 72.1908 64.4603C72.4292 64.5955 72.6143 64.7941 72.7463 65.0561C72.8824 65.3138 72.9505 65.6307 72.9505 66.0068ZM70.365 66.0068C70.365 66.273 70.399 66.5054 70.4671 66.704C70.5395 66.8983 70.6501 67.0483 70.7991 67.154C70.948 67.2596 71.1374 67.3124 71.3673 67.3124C71.5971 67.3124 71.7865 67.2596 71.9355 67.154C72.0844 67.0483 72.193 66.8983 72.2611 66.704C72.3334 66.5054 72.3696 66.273 72.3696 66.0068C72.3696 65.7364 72.3334 65.5061 72.2611 65.3159C72.1887 65.1258 72.078 64.98 71.9291 64.8786C71.7844 64.773 71.595 64.7202 71.3609 64.7202C71.0119 64.7202 70.7586 64.8343 70.6012 65.0624C70.4437 65.2906 70.365 65.6054 70.365 66.0068Z" fill="white"/>
<path d="M76.4138 67.7117H75.8456V64.7772H74.8369C74.7943 65.3138 74.7411 65.7723 74.6773 66.1526C74.6134 66.5286 74.5326 66.835 74.4347 67.0716C74.3368 67.3082 74.2197 67.4814 74.0835 67.5913C73.9473 67.7012 73.7877 67.7561 73.6047 67.7561C73.5494 67.7561 73.4941 67.7519 73.4387 67.7434C73.3877 67.7392 73.3451 67.7286 73.3111 67.7117V67.2934C73.3366 67.3019 73.3643 67.3082 73.394 67.3124C73.4238 67.3166 73.4536 67.3188 73.4834 67.3188C73.5771 67.3188 73.6622 67.2807 73.7388 67.2047C73.8154 67.1286 73.8835 67.0124 73.9431 66.8561C74.0069 66.6997 74.0644 66.5033 74.1155 66.2666C74.1665 66.0258 74.2112 65.7427 74.2495 65.4174C74.2878 65.092 74.3219 64.7244 74.3517 64.3145H76.4138V67.7117Z" fill="white"/>
<path d="M79.4917 64.3145H80.1046L78.6426 65.9497L80.2259 67.7117H79.5747L78.0298 65.9878V67.7117H77.4679V64.3145H78.0298V65.9624L79.4917 64.3145Z" fill="white"/>
<path d="M81.345 66.3871C81.345 66.4251 81.3429 66.48 81.3386 66.5519C81.3386 66.6195 81.3365 66.6934 81.3323 66.7737C81.328 66.8497 81.3238 66.9237 81.3195 66.9955C81.3152 67.0631 81.311 67.1181 81.3067 67.1603L83.139 64.3145H83.8285V67.7117H83.305V65.7089C83.305 65.6413 83.305 65.5526 83.305 65.4427C83.3092 65.3328 83.3135 65.2251 83.3177 65.1195C83.322 65.0096 83.3263 64.9272 83.3305 64.8723L81.511 67.7117H80.8151V64.3145H81.345V66.3871Z" fill="white"/>
</g>
</g>
</g>
<defs>
<clipPath id="clip0_2003_789">
<rect width="90" height="90" fill="white"/>
</clipPath>
</defs>
</svg>
